<?xml version="1.0" encoding="utf-8"?>
<svg version="1.1" xmlns:xlink="http://www.w3.org/1999/xlink" width="28px" height="19px" xmlns="http://www.w3.org/2000/svg">
  <g transform="matrix(1 0 0 1 -635 -330 )">
    <path d="M 8.822136576576575 18.443317186982902  L 8.823600892320894 18.442820371391804  C 8.598185847157005 18.44302004263226  8.381971967841984 18.35184362340201  8.222740986700986 18.189440455046885  L 0.2665943715143715 10.093703906048907  C 0.10463761602947888 9.931073437750966  0.013465791252005645 9.709163536526555  0.013465791252005645 9.477595383704456  C 0.013465791252005645 8.999611556470338  0.39415030500009174 8.612129104976749  0.8637484510546654 8.612129104976749  C 1.0913736891083161 8.612129104976749  1.3094948316145791 8.705026380443202  1.4692903989703985 8.87002797940798  L 9.422996482196483 16.965764545872403  C 9.58252113270567 17.12807983856425  9.672145940917993 17.348261440106285  9.672145940917993 17.57785095296043  C 9.672145940917993 18.05572614942529  9.291627973413512 18.443163589681195  8.822136576576575 18.443317186982902  Z M 1.4893027885027879 10.09221344180916  C 1.3303908183682556 10.254554993172727  1.1145660267640043 10.345894187305051  0.8894190990990992 10.346090173745175  C 0.41992769555792187 10.345936586085879  0.03940971759705133 9.958499143002806  0.03940971759705133 9.480623939717086  C 0.03940971759705133 9.251034418304476  0.12903453247264463 9.030852809277109  0.28855919347919345 8.868537515168228  L 8.205657245817246 0.8100627118955694  C 8.36261504324403 0.6630416337177367  8.56812894242137 0.581437846743674  8.781434292796618 0.581437846743674  C 9.25103243885119 0.581437846743674  9.631716952599279 0.9689202982372619  9.631716952599279 1.4469041254713815  C 9.631716952599279 1.664382571381821  9.551276321190366 1.8738897317668164  9.406400840840838 2.0337386385364966  L 1.4893027885027879 10.09221344180916  Z M 25.82144446160446 10.356026642765217  C 25.82144446160446 10.356026642765217  25.82144446160446 10.356026642765217  25.82144446160446 10  L 0.8791688374088396 10  C 0.8791688374088396 10.356026642765217  0.8791688374088396 10.356026642765217  0.8791688374088396 10.356026642765217  C 0.4095706866156577 10.356026642765217  0.028886169026170676 9.96854418736163  0.028886169026170676 9.490560355304284  C 0.028886169026170676 9.012576523246938  0.4095706866156577 8.625094067843355  0.8791688374088396 8.625094067843355  C 0.8791688374088396 8.625094067843355  0.8791688374088396 8.625094067843355  0.8791688374088393 9  L 25.82144446160446 9  C 25.82144446160446 8.625094067843355  25.82144446160446 8.625094067843355  25.82144446160446 8.625094067843355  C 26.291042612397643 8.625094067843355  26.671727129987126 9.012576523246938  26.671727129987126 9.490560355304284  C 26.671727129987126 9.96854418736163  26.291042612397643 10.356026642765217  25.82144446160446 10.356026642765217  Z " fill-rule="nonzero" fill="#f2f2f2" stroke="none" transform="matrix(1 0 0 1 635 330 )" />
  </g>
</svg>