<?xml version="1.0" encoding="utf-8"?>
<svg version="1.1" xmlns:xlink="http://www.w3.org/1999/xlink" width="23px" height="23px" xmlns="http://www.w3.org/2000/svg">
  <g transform="matrix(1 0 0 1 -896 -328 )">
    <path d="M 0 20.423730468749998  C 0 21.84326171875  1.2061523437500001 22.99775390625  2.6908203125 23  L 20.309179687500002 23  C 21.793847656249998 22.99775390625  22.999999999999996 21.84326171875  23 20.423730468749998  L 23 2.589746093749999  C 23 1.17021484375  21.793847656249998 0.015722656249999998  20.309179687500002 0  L 3.33095703125 0  C 2.92666015625 0.015722656249999998  2.5987304687500004 0.3279296875  2.5987304687500004 0.71201171875  C 2.5987304687500004 1.0960937499999999  2.92666015625 1.4083007812500001  3.33095703125 1.4083007812500001  L 20.309179687500002 1.4083007812500001  C 20.985253906249998 1.4083007812500001  21.533300781250002 1.9383789062500003  21.533300781250002 2.58974609375  L 21.533300781250002 20.423730468749998  C 21.533300781250002 21.075097656249998  20.983007812500002 21.60517578125  20.309179687500002 21.60517578125  L 2.6908203125 21.60517578125  C 2.01474609375 21.60517578125  1.4666992187499999 21.075097656249998  1.4666992187499999 20.423730468749998  L 1.4666992187499999 3.82958984375  C 1.4666992187499999 3.4455078125000003  1.1387695312500001 3.13330078125  0.7344726562499999 3.13330078125  C 0.3301757812499999 3.13330078125  0 3.4455078125000003  0 3.82958984375  L 0 20.423730468749998  Z " fill-rule="nonzero" fill="#f2f2f2" stroke="none" transform="matrix(1 0 0 1 896 328 )" />
  </g>
</svg>