<?xml version="1.0" encoding="utf-8"?>
<svg version="1.1" xmlns:xlink="http://www.w3.org/1999/xlink" width="13px" height="9px" xmlns="http://www.w3.org/2000/svg">
  <g transform="matrix(1 0 0 1 -901 -335 )">
    <path d="M 2.5009765625 0.793212890625  C 2.5009765625 1.1689453125  2.684839709051724 1.474365234375  2.910290948275862 1.474365234375  L 9.468076508620689 1.474365234375  C 9.693527747844827 1.474365234375  9.877390894396552 1.1689453125  9.877390894396552 0.793212890625  C 9.877390894396552 0.41748046875  9.693527747844831 0.112060546875  9.468076508620689 0.112060546875  L 2.910290948275862 0.112060546875  C 2.684839709051724 0.112060546875  2.5009765625 0.41748046875  2.5009765625 0.793212890625  Z M 2.5009765625 4.506591796874998  C 2.5009765625 4.88232421875  2.719861260775862 5.187744140624998  2.991278286637931 5.187744140624998  L 10.853616648706897 5.187744140624998  C 11.125033674568964 5.187744140624998  11.343918372844827 4.88232421875  11.343918372844827 4.506591796874998  C 11.343918372844827 4.130859374999998  11.125033674568964 3.8254394531249987  10.853616648706897 3.8254394531249987  L 2.991278286637931 3.8254394531249987  C 2.719861260775862 3.8254394531249987  2.5009765625 4.130859374999998  2.5009765625 4.506591796874998  Z M 12.965853987068964 8.219970703125  C 12.965853987068964 7.84423828125  12.705381196120689 7.538818359374998  12.383620689655173 7.538818359374998  L 3.102909482758619 7.538818359374998  C 2.7833378232758608 7.538818359374998  2.5228650323275845 7.84423828125  2.5228650323275845 8.219970703125  C 2.5228650323275845 8.595703125  2.7833378232758608 8.901123046875  3.102909482758619 8.901123046875  L 12.38580953663793 8.901123046875  C 12.705381196120689 8.901123046875  12.965853987068964 8.595703125  12.965853987068964 8.219970703125  Z M 1.3715315193965516 0.7932128906249983  C 1.3671538254310345 0.4174804687499984  1.0694706357758612 0.11206054687499921  0.7017443426724138 0.112060546875  C 0.3340180495689655 0.112060546875  0.03633485991379311 0.41748046875  0.03633485991379311 0.791015625  C 0.03414601293103448 0.968994140625  0.10418911637931036 1.144775390625  0.22895339439655174 1.272216796875  C 0.3537176724137931 1.4018554687499984  0.522258890086207 1.47216796875  0.7017443426724138 1.4743652343749984  L 0.706122036637931 1.4743652343749984  C 0.885607489224137 1.4743652343749984  1.0519598599137923 1.4018554687499984  1.1789129849137923 1.272216796875  C 1.3036772629310338 1.1447753906249984  1.3737203663793096 0.9689941406249983  1.3715315193965516 0.7932128906249983  Z M 1.3715315193965516 4.506591796875002  C 1.3671538254310345 4.130859375000002  1.0694706357758612 3.8254394531250013  0.7017443426724138 3.825439453125  C 0.3340180495689655 3.825439453125  0.03633485991379311 4.130859375  0.03633485991379311 4.504394531250002  C 0.03414601293103448 4.682373046875002  0.10418911637931036 4.858154296875002  0.22895339439655174 4.985595703125  C 0.3537176724137931 5.115234375  0.522258890086207 5.185546875000002  0.7017443426724138 5.187744140625002  L 0.706122036637931 5.187744140625002  C 0.885607489224137 5.187744140625002  1.0519598599137923 5.115234375000003  1.1789129849137923 4.985595703125  C 1.3036772629310338 4.858154296875002  1.3737203663793096 4.682373046875002  1.3715315193965516 4.506591796875002  Z M 1.3715315193965516 8.219970703125  C 1.3671538254310345 7.84423828125  1.0694706357758612 7.538818359374998  0.7017443426724138 7.538818359374998  C 0.3340180495689655 7.538818359374998  0.03633485991379311 7.84423828125  0.03633485991379311 8.2177734375  C 0.03414601293103448 8.395751953125  0.10418911637931036 8.571533203125  0.22895339439655174 8.698974609374996  C 0.3537176724137931 8.828613281249996  0.522258890086207 8.89892578125  0.7017443426724138 8.901123046875  L 0.706122036637931 8.901123046875  C 0.885607489224137 8.901123046875  1.0519598599137923 8.82861328125  1.1789129849137923 8.698974609374996  C 1.3036772629310338 8.571533203125  1.3737203663793096 8.395751953125  1.3715315193965516 8.219970703125  Z " fill-rule="nonzero" fill="#f2f2f2" stroke="none" transform="matrix(1 0 0 1 901 335 )" />
  </g>
</svg>