<?xml version="1.0" encoding="utf-8"?>
<svg version="1.1" xmlns:xlink="http://www.w3.org/1999/xlink" width="22px" height="24px" xmlns="http://www.w3.org/2000/svg">
  <g transform="matrix(1 0 0 1 -939 -328 )">
    <path d="M 21.947265625000004 13.584694602272727  C 21.947265625000004 13.16122159090909  21.629882812500004 12.814985795454545  21.2392578125 12.814985795454545  C 20.85107421875 12.814985795454545  20.53369140625 13.16122159090909  20.53369140625 13.584694602272727  L 20.53369140625 20.04598721590909  C 20.53369140625 21.329723011363637  19.57666015625 22.373757102272727  18.39990234375 22  L 3.63427734375 22  C 2.4575195312500004 22.373757102272727  1.50048828125 21.329723011363637  1.50048828125 20.04598721590909  L 1.50048828125 3.938032670454546  C 1.50048828125 2.6542968750000004  2.4575195312500004 1.6102627840909092  3.63427734375 1.6102627840909092  L 11.017089843750002 1.6102627840909092  C 11.4052734375 1.6102627840909092  11.72265625 1.2640269886363635  11.72265625 0.8405539772727273  C 11.72265625 0.4170809659090907  11.4052734375 0.0708451704545452  11.017089843750002 0.0708451704545452  L 3.63427734375 0.0708451704545452  C 1.6811523437500002 0.07350852272727249  0.09179687500000046 1.807350852272728  0 3.938032670454546  L 0 20.048650568181817  C 0.09179687500000046 22.179332386363637  1.6811523437500002 23.91317471590909  3.63427734375 24  L 18.40234375 24  C 20.35546875 23.913174715909086  21.94482421875 22.179332386363633  21.947265625000004 20.048650568181813  L 21.947265625000004 13.584694602272727  Z " fill-rule="nonzero" fill="#f2f2f2" stroke="none" transform="matrix(1 0 0 1 939 328 )" />
  </g>
</svg>