<?xml version="1.0" encoding="utf-8"?>
<svg version="1.1" xmlns:xlink="http://www.w3.org/1999/xlink" width="372px" height="810px" xmlns="http://www.w3.org/2000/svg">
  <defs>
    <mask fill="white" id="clip21">
      <path d="M 350 810  L 22 810  C 9.67999999999995 810  0 800.3199999999997  0 788  L 0 22  C 0 9.679999999999836  9.67999999999995 0  22 0  L 350 0  C 362.31999999999994 0  372 9.679999999999836  372 22  L 372 788  C 372 800.3199999999997  362.31999999999994 810  350 810  Z M 5 781  C 5 793.3200000000002  14.67999999999995 803  27.000000000000004 803  L 345 803  C 357.31999999999994 803  367 793.3200000000002  367 781  L 367 29  C 367 16.679999999999836  357.31999999999994 6.999999999999999  345 7  L 27.000000000000004 7  C 14.67999999999995 6.999999999999999  5 16.679999999999836  5 29  L 5 781  Z " fill-rule="evenodd" />
    </mask>
  </defs>
  <g transform="matrix(1 0 0 1 -117 -251 )">
    <path d="M 350 810  L 22 810  C 9.67999999999995 810  0 800.3199999999997  0 788  L 0 22  C 0 9.679999999999836  9.67999999999995 0  22 0  L 350 0  C 362.31999999999994 0  372 9.679999999999836  372 22  L 372 788  C 372 800.3199999999997  362.31999999999994 810  350 810  Z M 5 781  C 5 793.3200000000002  14.67999999999995 803  27.000000000000004 803  L 345 803  C 357.31999999999994 803  367 793.3200000000002  367 781  L 367 29  C 367 16.679999999999836  357.31999999999994 6.999999999999999  345 7  L 27.000000000000004 7  C 14.67999999999995 6.999999999999999  5 16.679999999999836  5 29  L 5 781  Z " fill-rule="nonzero" fill="#000000" stroke="none" transform="matrix(1 0 0 1 117 251 )" />
    <path d="M 350 810  L 22 810  C 9.67999999999995 810  0 800.3199999999997  0 788  L 0 22  C 0 9.679999999999836  9.67999999999995 0  22 0  L 350 0  C 362.31999999999994 0  372 9.679999999999836  372 22  L 372 788  C 372 800.3199999999997  362.31999999999994 810  350 810  Z " stroke-width="4" stroke="#000000" fill="none" transform="matrix(1 0 0 1 117 251 )" mask="url(#clip21)" />
    <path d="M 5 781  C 5 793.3200000000002  14.67999999999995 803  27.000000000000004 803  L 345 803  C 357.31999999999994 803  367 793.3200000000002  367 781  L 367 29  C 367 16.679999999999836  357.31999999999994 6.999999999999999  345 7  L 27.000000000000004 7  C 14.67999999999995 6.999999999999999  5 16.679999999999836  5 29  L 5 781  Z " stroke-width="4" stroke="#000000" fill="none" transform="matrix(1 0 0 1 117 251 )" mask="url(#clip21)" />
  </g>
</svg>