<?xml version="1.0" encoding="utf-8"?>
<svg version="1.1" xmlns:xlink="http://www.w3.org/1999/xlink" width="15px" height="18px" xmlns="http://www.w3.org/2000/svg">
  <g transform="matrix(1 0 0 1 -946 -328 )">
    <path d="M 10.778788077731091 1.3831787109375  L 12.716320903361344 3.904541015625  C 8.297170430672269 4.15447998046875  4.9489561449579815 5.6513671875  2.7627691701680654 8.35125732421875  C -0.339252888655464 12.1827392578125  0.07927389705882174 17.0057373046875  0.09896927521008224 17.208984375  C 0.1358981092436957 17.61273193359375  0.4411764705882335 17.9176025390625  0.803079044117647 17.9176025390625  C 0.8276982668067226 17.9176025390625  0.8523174894957983 17.9176025390625  0.8793986344537815 17.91485595703125  C 1.2683823529411766 17.868164062499996  1.5515034138655461 17.4781494140625  1.5121126575630253 17.044189453124996  C 1.5121126575630253 17.033203124999996  1.4185596113445378 15.942810058593746  1.664751838235294 14.443176269531246  C 1.886324842436975 13.083618164062496  2.442719275210084 11.106079101562496  3.83124343487395 9.400451660156246  C 5.754004726890757 7.035644531249994  8.767397584033613 5.720031738281245  12.785254726890752 5.4893188476562464  L 10.749245010504199 8.516052246093746  C 10.586758140756299 8.757751464843746  10.559676995798316 9.076354980468745  10.682773109243694 9.348266601562496  C 10.803407300420165 9.617431640624996  11.04713760504201 9.787719726562496  11.317949054621842 9.787719726562496  L 11.320410976890752 9.787719726562496  C 11.544445903361341 9.787719726562496  11.75617121848739 9.669616699218746  11.889115021008399 9.469116210937496  L 14.799107142857139 5.137756347656245  L 14.801569065126047 5.1322631835937464  C 14.80895483193277 5.1185302734374964  14.818802521008404 5.107543945312495  14.826188287815121 5.093811035156245  C 14.82865021008403 5.0910644531249964  14.831112132352942 5.085571289062495  14.833574054621845 5.082824707031245  L 14.836035976890752 5.080078124999995  C 14.840959821428568 5.069091796874995  14.845883665966383 5.0608520507812464  14.853269432773105 5.0498657226562464  L 14.855731355042018 5.0471191406249964  C 14.858193277310924 5.0443725585937464  14.858193277310924 5.0416259765624964  14.860655199579831 5.0361328124999964  C 14.868040966386554 5.0223999023437464  14.875426733193278 5.0059204101562464  14.8828125 4.9894409179687464  L 14.885274422268909 4.9839477539062464  L 14.900045955882351 4.9427490234374964  L 14.90250787815126 4.9345092773437464  L 14.917279411764707 4.8850708007812464  L 14.917279411764707 4.8795776367187464  C 14.922203256302524 4.8658447265624964  14.924665178571429 4.8493652343749964  14.927127100840336 4.8356323242187464  L 14.929589023109244 4.8246459960937464  C 14.932050945378151 4.8081665039062464  14.934512867647062 4.7916870117187464  14.936974789915967 4.7779541015624964  L 14.936974789915967 4.7697143554687464  C 14.939436712184873 4.7559814453124964  14.939436712184873 4.7449951171874964  14.941898634453782 4.7312622070312464  C 14.941898634453782 4.7257690429687464  14.941898634453782 4.7175292968749964  14.944360556722689 4.7120361328124964  L 14.944360556722689 4.6790771484374964  L 14.944360556722689 4.6516113281249964  L 14.944360556722689 4.618652343749997  C 14.944360556722689 4.6104125976562464  14.944360556722689 4.602172851562497  14.941898634453782 4.5966796874999964  C 14.941898634453782 4.5884399414062464  14.939436712184873 4.580200195312497  14.939436712184873 4.5719604492187464  C 14.939436712184873 4.5609741210937464  14.936974789915967 4.552734374999997  14.934512867647058 4.5417480468749964  C 14.932050945378151 4.5307617187499964  14.932050945378151 4.5197753906249964  14.929589023109244 4.508789062499997  C 14.927127100840332 4.5005493164062464  14.927127100840332 4.495056152343747  14.924665178571425 4.4868164062499964  C 14.922203256302517 4.4785766601562464  14.91974133403361 4.467590332031247  14.91974133403361 4.4593505859374964  L 14.91974133403361 4.453857421874997  C 14.91974133403361 4.448364257812497  14.917279411764703 4.4456176757812464  14.917279411764703 4.440124511718747  C 14.912355567226884 4.426391601562497  14.90989364495798 4.412658691406247  14.904969800420165 4.398925781249997  C 14.902507878151257 4.393432617187497  14.902507878151257 4.3906860351562464  14.900045955882346 4.385192871093747  L 14.900045955882346 4.382446289062497  C 14.89512211134453 4.371459960937497  14.892660189075626 4.360473632812497  14.887736344537808 4.349487304687497  L 14.882812499999993 4.338500976562497  C 14.877888655462177 4.324768066406247  14.870502888655455 4.308288574218747  14.863117121848733 4.294555664062497  L 14.860655199579824 4.286315917968747  C 14.853269432773105 4.272583007812497  14.84588366596638 4.258850097656247  14.838497899159655 4.242370605468747  L 14.83603597689075 4.239624023437497  C 14.818802521008395 4.209411621093747  14.799107142857135 4.179199218749998  14.776949842436968 4.151733398437498  L 11.86203387605042 0.3504638671875  C 11.605993960084033 0.01812744140625  11.15546218487395 -0.02032470703125  10.857569590336135 0.2625732421875  C 10.559676995798318 0.5482177734375002  10.525210084033613 1.05084228515625  10.778788077731091 1.3831787109375  Z " fill-rule="nonzero" fill="#f2f2f2" stroke="none" transform="matrix(1 0 0 1 946 328 )" />
  </g>
</svg>