<?xml version="1.0" encoding="utf-8"?>
<svg version="1.1" xmlns:xlink="http://www.w3.org/1999/xlink" width="15px" height="10px" xmlns="http://www.w3.org/2000/svg">
  <g transform="matrix(1 0 0 1 -648 -720 )">
    <path d="M 6.84688412580819 9.670015963807398  L 0.31572543440193984 1.9392566764987238  C 0.14248578094683922 1.7342206451303745  0.045159112758207505 1.4561182143913185  0.045159112758207505 1.166137107878412  C 0.045159112758207505 0.5623272486192643  0.4586892094347456 0.07284264438989164  0.9688044353605784 0.07284264438989164  C 1.2137884777471133 0.07284264438989164  1.4487370866351528 0.18804564325797912  1.6219571827855603 0.3931048309948988  L 7.5 7.350788165656889  L 13.37804281721444 0.3931048309948988  C 13.55125691736734 0.1880990429829374  13.78617391569366 0.07292993613657124  14.031121818164735 0.07292993613657124  C 14.541237044090565 0.07292993613657124  14.954767140767103 0.5624145403659425  14.954767140767103 1.1662243996250916  C 14.954767140767103 1.456162728278939  14.85746910549286 1.73422774243459  14.684274565598061 1.9392566764987238  L 8.153115874191815 9.670015963807396  C 7.979898775162888 9.87504845036158  7.744965971870031 9.990234502079872  7.500000000000002 9.990234502079872  C 7.255034028129977 9.990234502079872  7.020101224837116 9.875048450361584  6.84688412580819 9.670015963807398  Z " fill-rule="nonzero" fill="#1f1f1f" stroke="none" transform="matrix(1 0 0 1 648 720 )" />
  </g>
</svg>