<?xml version="1.0" encoding="utf-8"?>
<svg version="1.1" xmlns:xlink="http://www.w3.org/1999/xlink" width="18px" height="18px" xmlns="http://www.w3.org/2000/svg">
  <g transform="matrix(1 0 0 1 -1106 -695 )">
    <path d="M 17.88888888671875 8.999999999999998  C 17.88888888671875 4.073333339843749  13.926666660156247 0.11111111328124901  9 0.11111111328125012  C 8.992583299919206 0.11109250164613282  8.985166579406828 0.11108319581758819  8.97774985597384 0.11108319581758819  C 4.0808250777364075 0.11108319581758819  0.11108319581758819 4.0808250777364075  0.11108319581758819 8.97774985597384  C 0.11108319581758819 8.985166579406828  0.11109250164613282 8.992583299919206  0.11111111328125012 9  C 0.11111111328125012 13.926666660156247  4.073333339843751 17.88888888671875  9 17.88888888671875  C 13.926666660156247 17.88888888671875  17.88888888671875 13.926666660156247  17.88888888671875 8.999999999999998  Z M 9.7622222265625 6.9677777734375  L 9.7622222265625 13.57111111328125  C 9.7622222265625 13.977777773437499  9.4066666796875 14.333333339843751  8.999999999999998 14.333333339843751  C 8.583232475815555 14.323371205071899  8.247739908209347 13.987878637465693  8.237777773437498 13.571111113281251  L 8.237777773437498 6.9677777734375  C 8.237777773437498 6.562222226562499  8.5933333203125 6.20666666015625  8.999999999999998 6.20666666015625  C 9.40666666015625 6.20666666015625  9.7622222265625 6.562222207031251  9.7622222265625 6.9677777734375  Z M 9 5.1888888867187495  L 9 5.1899999999999995  C 8.28888888671875 5.1899999999999995  7.73 4.6322222265625  7.73 3.92111111328125  C 7.73 3.210000000000001  8.28888888671875 2.6511111132812504  9 2.6511111132812504  C 9.711111113281252 2.6511111132812504  10.27 3.210000000000001  10.27 3.92111111328125  C 10.27 4.6322222265625  9.711111113281252 5.1888888867187495  9 5.1888888867187495  Z " fill-rule="nonzero" fill="#9fa9ba" stroke="none" transform="matrix(1 0 0 1 1106 695 )" />
  </g>
</svg>